<svg xmlns="http://www.w3.org/2000/svg" xmlns:xlink="http://www.w3.org/1999/xlink" version="1.1" x="0px" y="0px" viewBox="0 0 1024 1280" style="enable-background:new 0 0 1024 1024;" xml:space="preserve"><g><path d="M919.69,746.32L630.21,608.94c-7.22-3.43-16.01-0.69-20.01,6.23l-7.7,13.33c3.06-9.31,4.71-19.25,4.71-29.56   c0-45.75-32.44-84.07-75.54-93.15h15.37c8,0,14.76-6.25,15.41-14.21l25.76-319.39c0.79-9.72-5.47-18.61-14.88-21.16l-5.68-1.54   c-36.41-9.85-74.89-9.85-111.3,0l-5.68,1.54c-9.41,2.55-15.67,11.44-14.88,21.16l25.76,319.39c0.65,7.96,7.41,14.21,15.41,14.21   h15.37c-43.1,9.08-75.54,47.4-75.54,93.15c0,10.31,1.65,20.25,4.71,29.56l-7.7-13.33c-4-6.92-12.79-9.66-20.01-6.23L104.31,746.32   c-8.8,4.17-13.38,14.04-10.88,23.46l1.51,5.69c9.67,36.46,28.91,69.79,55.65,96.4l4.17,4.15c3.91,3.89,9.08,5.89,14.28,5.89   c3.99,0,8-1.18,11.49-3.58l263.71-182.01c6.58-4.54,8.6-13.53,4.6-20.45L441,662.29c17.43,19.54,42.8,31.86,71,31.86   s53.57-12.32,71-31.86l-7.84,13.58c-4,6.92-1.98,15.91,4.6,20.45l263.71,182.01c3.49,2.4,7.5,3.58,11.49,3.58   c5.2,0,10.37-2,14.28-5.89l4.17-4.15c26.74-26.61,45.98-59.94,55.65-96.4l1.51-5.68C933.07,760.36,928.49,750.49,919.69,746.32z    M410.51,671.43c-12.43,7.18-23.62,16.31-33.14,27.04l-7.19,8.1c-0.22,0.24-0.61,0.2-0.77-0.08l-21.84-37.83   c-0.16-0.28,0-0.64,0.32-0.71l10.6-2.17c14.06-2.89,27.56-8.02,39.99-15.19l13.84-7.99l12.03,20.84L410.51,671.43z M489.71,422.31   c-0.1-0.31,0.12-0.62,0.45-0.62h43.68c0.33,0,0.55,0.31,0.45,0.62l-3.42,10.28c-4.53,13.61-6.84,27.87-6.84,42.22v15.98h-24.06   v-15.98c0-14.35-2.31-28.61-6.84-42.22L489.71,422.31z M512,666.93c-37.49,0-67.99-30.5-67.99-67.99   c0-37.48,30.5-67.98,67.99-67.98s67.99,30.5,67.99,67.98C579.99,636.43,549.49,666.93,512,666.93z M676.43,668.66l-21.84,37.83   c-0.16,0.28-0.55,0.32-0.77,0.08l-7.19-8.1c-9.52-10.73-20.71-19.86-33.14-27.04l-13.84-7.99l12.03-20.84l13.84,7.99   c12.43,7.17,25.93,12.3,39.99,15.19l10.6,2.17C676.43,668.02,676.59,668.38,676.43,668.66z"/><path d="M564.99,598.94c0,29.22-23.77,52.99-52.99,52.99s-52.99-23.77-52.99-52.99c0-29.21,23.77-52.98,52.99-52.98   S564.99,569.73,564.99,598.94z"/></g><text x="0" y="1039" fill="#000000" font-size="5px" font-weight="bold" font-family="'Helvetica Neue', Helvetica, Arial-Unicode, Arial, Sans-serif">Created by IconPai</text><text x="0" y="1044" fill="#000000" font-size="5px" font-weight="bold" font-family="'Helvetica Neue', Helvetica, Arial-Unicode, Arial, Sans-serif">from the Noun Project</text></svg>