<svg xmlns="http://www.w3.org/2000/svg" xmlns:xlink="http://www.w3.org/1999/xlink" version="1.1" x="0px" y="0px" viewBox="0 0 91 113.75" enable-background="new 0 0 91 91" xml:space="preserve"><g fill="#008000"><path d="M54.683,27.35c-1.25-0.59-2.738-0.055-3.328,1.193s-0.055,2.738,1.193,3.328c5.652,2.672,9.285,8.438,9.256,14.689   c-0.023,4.311-1.725,8.355-4.789,11.391c-3.066,3.033-7.188,4.688-11.441,4.668c-8.9-0.045-16.105-7.324-16.061-16.227   c0.033-6.225,3.539-11.771,9.148-14.473c1.244-0.6,1.766-2.094,1.166-3.338c-0.598-1.242-2.092-1.766-3.336-1.168   c-7.346,3.539-11.936,10.801-11.979,18.953c-0.059,11.66,9.377,21.193,21.035,21.252c0.039,0,0.076,0,0.115,0   c5.605,0,10.881-2.168,14.869-6.115c4.014-3.973,6.24-9.271,6.271-14.918C66.843,38.398,62.085,30.85,54.683,27.35z"/><path d="M45.655,49.359c1.381,0,2.5-1.119,2.5-2.5v-23.48c0-1.381-1.119-2.5-2.5-2.5c-1.379,0-2.5,1.119-2.5,2.5v23.48   C43.155,48.24,44.276,49.359,45.655,49.359z"/><path d="M45.655,12.063c-18.896,0-34.271,15.375-34.271,34.271c0,18.898,15.375,34.273,34.271,34.273   c18.898,0,34.273-15.375,34.273-34.273C79.929,27.438,64.554,12.063,45.655,12.063z M45.655,75.607   c-16.141,0-29.271-13.131-29.271-29.273c0-16.141,13.131-29.271,29.271-29.271s29.273,13.131,29.273,29.271   C74.929,62.477,61.796,75.607,45.655,75.607z"/></g></svg>