<svg xmlns="http://www.w3.org/2000/svg" version="1.1" viewBox="-5.0 -10.0 110.0 135.0">
 <path d="m73.688 33.664h4.8008v1.3125c0 0.28906-0.23438 0.52344-0.52344 0.52344h-5.3906c-0.21484 0-0.39062 0.17578-0.39062 0.39062s0.17578 0.39062 0.39062 0.39062h5.3906c0.71875 0 1.3047-0.58594 1.3047-1.3047v-1.3125h0.91797l1.2656 0.52734c0.44531 0.1875 0.91406 0.27734 1.375 0.27734 0.52344 0 1.0469-0.11719 1.5156-0.35547 0.81641-0.41016 1.3867-1.1211 1.6094-2 0.91797-3.6562 0.89062-7.5508-0.085937-11.578-0.21875-0.91406-0.78516-1.6172-1.5898-1.9844-0.84375-0.38672-1.8438-0.34375-2.7461 0.12109l-1.3672 0.70312h-0.89844v-1.3125c0-0.71875-0.58594-1.3047-1.3047-1.3047h-5.3906c-0.21484 0-0.39062 0.17578-0.39062 0.39063 0 0.21484 0.17578 0.39062 0.39062 0.39062h5.3906c0.28906 0 0.52344 0.23438 0.52344 0.52344v1.3125h-4.8125c-1.1523 0-2.0977 0.80469-2.7383 2.332-0.52734 1.2578-0.82031 2.9531-0.82031 4.7656 0 3.4648 1.1172 7.1953 3.5703 7.1953zm-2.0312-11.66c0.35156-0.84375 0.99219-1.8516 2.0156-1.8516h6.1953v12.73h-6.1836c-1.8125 0-2.7891-3.3047-2.7891-6.4141 0-1.7109 0.26953-3.2969 0.75781-4.4609z"/>
 <path d="m15.723 35.695c0.38281 0.17188 0.79688 0.26172 1.2188 0.26172 0.51172 0 1.0352-0.125 1.5312-0.38281l1.3672-0.70312h0.89844v1.3125c0 0.71875 0.58594 1.3047 1.3047 1.3047h5.3906c0.21484 0 0.39062-0.17578 0.39062-0.39062s-0.17578-0.39062-0.39062-0.39062h-5.3906c-0.28906 0-0.52344-0.23438-0.52344-0.52344v-1.3125h4.8125c2.457 0 3.5547-3.5625 3.5547-7.0977 0-3.5352-1.1172-7.1953-3.5703-7.1953h-4.8008v-1.3125c0-0.28906 0.23438-0.52344 0.52344-0.52344h5.3906c0.21484 0 0.39062-0.17578 0.39062-0.39063 0-0.21484-0.17578-0.39062-0.39062-0.39062h-5.3906c-0.71875 0-1.3047 0.58594-1.3047 1.3047v1.3125h-0.91797l-1.2656-0.52734c-0.95312-0.39453-2.0078-0.36719-2.8945 0.078125-0.81641 0.41016-1.3867 1.1211-1.6094 2-0.91797 3.6562-0.89062 7.5508 0.085937 11.578 0.21875 0.91406 0.78516 1.6172 1.5898 1.9844zm13.379-7.918c0 1.7109-0.26953 3.2969-0.75781 4.4609-0.35156 0.84375-0.99219 1.8516-2.0156 1.8516h-6.1953v-12.73h6.1836c1.8125 0 2.7891 3.3047 2.7891 6.4141z"/>
 <path d="m26.328 65.125h-4.8125v-1.3125c0-0.28906 0.23438-0.52344 0.52344-0.52344h5.3906c0.21484 0 0.39062-0.17578 0.39062-0.39062 0-0.21484-0.17578-0.39063-0.39062-0.39063h-5.3906c-0.71875 0-1.3047 0.58594-1.3047 1.3047v1.3125h-0.89844l-1.3672-0.70312c-0.90234-0.46094-1.8984-0.50781-2.7461-0.12109-0.80469 0.36719-1.3672 1.0703-1.5898 1.9844-0.97656 4.0273-1.0039 7.9219-0.085937 11.578 0.21875 0.88281 0.79297 1.5938 1.6094 2 0.47266 0.23438 0.99219 0.35547 1.5156 0.35547 0.46094 0 0.92969-0.09375 1.375-0.27734l1.2656-0.52734h0.91797v1.3125c0 0.71875 0.58594 1.3047 1.3047 1.3047h5.3906c0.21484 0 0.39062-0.17578 0.39062-0.39062s-0.17578-0.39062-0.39062-0.39062h-5.3906c-0.28906 0-0.52344-0.23438-0.52344-0.52344v-1.3125h4.8008c1.1484 0 2.0977-0.82031 2.7422-2.3711 0.53125-1.2812 0.82812-3 0.82812-4.8242 0-3.5312-1.1016-7.0977-3.5547-7.0977zm2.0078 11.625c-0.35938 0.85938-1 1.8906-2.0195 1.8906h-6.1836v-12.73h6.1953c1.8203 0 2.7734 3.1797 2.7734 6.3164 0 1.7031-0.28125 3.3516-0.76562 4.5234z"/>
 <path d="m84.008 64.305c-0.84375-0.38672-1.8438-0.34375-2.7461 0.12109l-1.3672 0.70312h-0.89844v-1.3125c0-0.71875-0.58594-1.3047-1.3047-1.3047h-5.3906c-0.21484 0-0.39062 0.17578-0.39062 0.39062s0.17578 0.39062 0.39062 0.39062h5.3906c0.28906 0 0.52344 0.23438 0.52344 0.52344v1.3125h-4.8125c-1.1523 0-2.0977 0.80469-2.7383 2.332-0.52734 1.2578-0.82031 2.9531-0.82031 4.7656 0 3.4648 1.1172 7.1953 3.5703 7.1953h4.8008v1.3125c0 0.28906-0.23438 0.52344-0.52344 0.52344h-5.3906c-0.21484 0-0.39062 0.17578-0.39062 0.39063 0 0.21484 0.17578 0.39062 0.39062 0.39062h5.3906c0.71875 0 1.3047-0.58594 1.3047-1.3047v-1.3125h0.91797l1.2656 0.52734c0.44531 0.1875 0.91406 0.27734 1.375 0.27734 0.52344 0 1.0469-0.11719 1.5156-0.35547 0.81641-0.41016 1.3867-1.1211 1.6094-2 0.91797-3.6562 0.89062-7.5508-0.085938-11.578-0.21875-0.91406-0.78516-1.6172-1.5898-1.9844zm-13.375 7.9219c0-1.7109 0.26953-3.2969 0.75781-4.4609 0.35156-0.84375 0.99219-1.8516 2.0156-1.8516h6.1953v12.73h-6.1836c-1.8125 0-2.7891-3.3047-2.7891-6.4141z"/>
 <path d="m90.43 45.441h-23.152l0.003906-37.027c0-0.21484-0.17578-0.39062-0.39062-0.39062h-12.719c-0.015625 0-0.023437 0-0.039063 0.003906-0.58203-0.98047-1.6953-1.6445-2.9727-1.6445h-2.3203c-1.2773 0-2.3906 0.66406-2.9727 1.6445-0.011719 0-0.023438-0.003906-0.039063-0.003906h-12.719c-0.21484 0-0.39062 0.17578-0.39062 0.39062v37.031l-23.148-0.003906c-1.7578 0-3.1875 1.5234-3.1875 3.3984v2.3203c0 1.875 1.4297 3.3984 3.1875 3.3984h23.152v37.031c0 0.21484 0.17578 0.39062 0.39062 0.39062h12.719c0.015625 0 0.023438 0 0.039063-0.003907 0.58203 0.97656 1.6953 1.6445 2.9727 1.6445h2.3203c1.2734 0 2.3906-0.66406 2.9688-1.6406h12.492c0.21484 0 0.39062-0.17578 0.39062-0.39062v-37.031h23.422c1.7578 0 3.1875-1.5234 3.1875-3.3984v-2.3203c0-1.875-1.4297-3.3984-3.1875-3.3984zm-30.25-23.871h2.4844l-0.011718 9.9219h-2.4766v-9.9219zm0.60937 18.047c0.74609 0 1.3516 0.60937 1.3516 1.3516 0 0.74609-0.60938 1.3516-1.3516 1.3516-0.74609 0-1.3516-0.60937-1.3516-1.3516 0-0.74609 0.60938-1.3516 1.3516-1.3516zm-4.0156-19.469 2.5781 1.3203v10.195l-2.5781 1.0703zm-17.148-7.9609c0.82812 0 1.5 0.67188 1.5 1.5 0 0.82422-0.67188 1.5-1.5 1.5-0.82422 0-1.5-0.67188-1.5-1.5s0.67188-1.5 1.5-1.5zm3.6055 9.3203v12.586l-2.5781-1.3203v-10.195zm-5.8867 1.2422h2.4766v9.9219h-2.4844l0.011718-9.9219zm-0.015625 44.578h2.4844v9.9219h-2.4766l-0.011719-9.9219zm2.125 21.098c-0.80469 0-1.4531-0.65234-1.4531-1.4531 0-0.80469 0.65234-1.4531 1.4531-1.4531s1.4531 0.65234 1.4531 1.4531c0 0.80469-0.65234 1.4531-1.4531 1.4531zm3.7773-9.9336-2.5781-1.0703v-10.195l2.5781-1.3203zm15.852-1.0703-2.5781 1.0703v-12.586l2.5781 1.3203zm1.4414 10.664c-0.74609 0-1.3516-0.60938-1.3516-1.3516 0-0.74609 0.60938-1.3516 1.3516-1.3516 0.74609 0 1.3516 0.60938 1.3516 1.3516 0 0.74609-0.60938 1.3516-1.3516 1.3516zm1.8672-10.836h-2.4766v-9.9219h2.4844l-0.011719 9.9219zm30.445-26.094c0 1.4453-1.0781 2.6172-2.4062 2.6172h-36.262c-0.21484 0-0.39062 0.17578-0.39062 0.39062v36.262c0 1.3281-1.1758 2.4062-2.6172 2.4062h-2.3203c-1.4453 0-2.6172-1.0781-2.6172-2.4062v-36.262c0-0.21484-0.17578-0.39062-0.39062-0.39062l-36.262 0.003906c-1.3281 0-2.4062-1.1758-2.4062-2.6172v-2.3203c0-1.4453 1.0781-2.6172 2.4062-2.6172h36.258c0.21484 0 0.39062-0.17578 0.39062-0.39062v-36.262c0-1.3281 1.1758-2.4062 2.6172-2.4062h2.3203c1.4453 0 2.6172 1.0781 2.6172 2.4062v36.262c0 0.21484 0.17578 0.39062 0.39062 0.39062h36.258c1.3281 0 2.4062 1.1758 2.4062 2.6172v2.3203z"/>
</svg>